<svg xmlns="http://www.w3.org/2000/svg" width="74.559" height="74.559" viewBox="0 0 74.559 74.559">
  <path id="Icon_metro-cancel" data-name="Icon metro-cancel" d="M39.85,1.928a37.28,37.28,0,1,0,37.28,37.28A37.28,37.28,0,0,0,39.85,1.928Zm0,67.569a30.29,30.29,0,1,1,30.29-30.29A30.29,30.29,0,0,1,39.85,69.5ZM51.5,20.568,39.85,32.218,28.2,20.568l-6.99,6.99,11.65,11.65-11.65,11.65,6.99,6.99L39.85,46.2,51.5,57.847l6.99-6.99L46.84,39.208l11.65-11.65Z" transform="translate(-2.571 -1.928)" fill="#fff"/>
</svg>
